<?xml version="1.0" encoding="UTF-8"?>
<svg id="a" data-name="レイヤー 1" xmlns="http://www.w3.org/2000/svg" viewBox="0 0 461 245.5">
  <defs>
    <style>
      .b {
        fill: #fff;
        opacity: 0;
        stroke-width: 0px;
      }

      .c {
        fill: none;
        stroke: #fff;
        stroke-linecap: round;
        stroke-linejoin: round;
        stroke-width: 5px;
      }
    </style>
  </defs>
  <path class="b" d="M397,243.5H63c-33.7,0-61-27.3-61-61V63.5C2,29.8,29.3,2.5,63,2.5h91.5l14,21h124.1l13-20,91.4-.5c33.7,0,61,27.4,61,61.1v118.4c0,33.7-27.3,61-61,61Z"/>
  <path class="c" d="M397.5,243H63.5c-33.7,0-61-27.3-61-61V64C2.5,30.3,29.8,3,63.5,3h91.5l14,21h123.3l13.6-21,91.6-.5c33.7,0,61,27.4,61,61.1v118.4c0,33.7-27.3,61-61,61Z"/>
</svg>