<svg xmlns="http://www.w3.org/2000/svg" xmlns:xlink="http://www.w3.org/1999/xlink" viewBox="-10 0 512 128"><defs><style>.g{fill:none}.g,.h,.i{stroke-width:0}.j{filter:url(#b)}.k{clip-path:url(#d)}.h{fill:url(#e)}.i{fill:url(#f)}</style><filter id="b" data-name="drop-shadow-1" filterUnits="userSpaceOnUse"><feOffset dx="7" dy="7"/><feGaussianBlur result="c" stdDeviation="5"/><feFlood flood-color="#000" flood-opacity=".8"/><feComposite in2="c" operator="in"/><feComposite in="SourceGraphic"/></filter><clipPath id="d"><path d="m10,0h462C477.5,0,482,4.5,482,10v97c0,5.5-4.5,10-10,10H45C20.2,117,0,96.8,0,72V10C0,4.5,4.5,0,10,0Z" class="g"/></clipPath><linearGradient id="e" x1="0" x2="482" y1="58.5" y2="58.5" data-name="名称未設定グラデーション 37" gradientUnits="userSpaceOnUse"><stop offset=".1" stop-color="#1a1a1a"/><stop offset=".6" stop-color="#242424"/><stop offset="1" stop-color="#1a1a1a"/></linearGradient><linearGradient id="f" x1="0" x2="155" y1="58.5" y2="58.5" data-name="名称未設定グラデーション 11" gradientUnits="userSpaceOnUse"><stop offset="0" stop-color="#242424"/><stop offset="1" stop-color="#333"/></linearGradient></defs><g class="j"><g class="k"><g><rect width="482" height="117" x="0" class="h"/><path d="m64.3,0c-.1,20.1,19.7,50,39.7,76s44,41,50.6,41c9.4,0-154.6,0-154.6,0V0h64.3Z" class="i"/></g></g></g></svg>