<?xml version="1.0" encoding="UTF-8"?>
<svg xmlns="http://www.w3.org/2000/svg" viewBox="-41.2 -36 256 256">
  <defs>
    <style>
      .b {
        fill: white;
        stroke-width: 0px;
      }
    </style>
  </defs>
  <path class="b" d="m162.4,0H25.8c-6.2,0-11.2,5-11.2,11.2v8.3h11.5c9.9,0,18,8.1,18,18s-8.1,18-18,18h-11.5v16.5h11c9.9,0,18,8.1,18,18s-8.1,18-18,18h-11v12h11c9.9,0,18,8.1,18,18s-8.1,18-18,18h-11v16.8c0,6.2,5,11.2,11.2,11.2h136.6c6.2,0,11.2-5,11.2-11.2V11.2c0-6.2-5-11.2-11.2-11.2Zm-60.8,21c13.8,0,25,11.2,25,25s-11.2,25-25,25-25-11.2-25-25,11.2-25,25-25Zm-41,130c-7-1-6-7-6-11s18.8-26.5,18.8-26.5c0,0-5.8,38.5-12.8,37.5Zm84-45c-7.2,6-26,8-26,13s2.9,33,2.9,33h-46.7s.2-34.9,7.7-56c4.2-11.8,15.4-15.7,19-15.5,10,.5,11,9.5,23,9.5s15-15,21-15,8,7,8,11-3,15-9,20Z"/>
  <rect class="b" x=".5" y="23.1" width="40" height="28" rx="14" ry="14"/>
  <rect class="b" x="0" y="75.6" width="40" height="28" rx="14" ry="14"/>
  <rect class="b" x="0" y="123.6" width="40" height="28" rx="14" ry="14"/>
</svg>
