<?xml version="1.0" encoding="UTF-8"?>
<svg xmlns="http://www.w3.org/2000/svg" viewBox="-62.5 -58.95 256 256">
  <defs>
    <style>
      .b {
        fill: white;
        stroke-width: 0px;
      }
    </style>
  </defs>
  <path class="b" d="m69.6.9c-2.3-1.2-4.9-1.2-7.2,0-8.2,4-28.1,14.7-34.3,27.3s-7.9,49-7.9,49c0,0,19.9-5.9,47.9-6s47.4,6,47.4,6c0,0-.4-32-11.4-49C95.9,15.6,77.4,5,69.6.9Z"/>
  <path class="b" d="m68,77.1c35,0,47.4,7.2,47.4,7.2,0,0,15.6,21.8,15.6,27.8s-51,26-65,26S0,116.1,0,111.1s20.1-26.8,20.1-26.8c0,0,12.9-7.2,47.9-7.2Zm-20,42c0,6,9,14,20,14s16-9,16-14,0-6-16-6-20,2-20,6Zm67.6-9.5c1.2.2,1.7-1.5.6-1.9-6.8-2.8-20.6-6.1-47.7-6.1s-48.7,4.8-55.1,7.7-.6,2,.5,1.9c13.8-1.3,10.7-2.7,54.6-3.6,26.3-.6,40.1.8,47.1,2Z"/>
</svg>
