<?xml version="1.0" encoding="UTF-8"?>
<svg xmlns="http://www.w3.org/2000/svg" viewBox="-5 -4 128 128">
  <defs>
    <style>
      .b {
        fill: white;
        stroke-width: 0px;
      }
    </style>
  </defs>
  <path class="b" d="m118,60c0,33.1-26.4,60-59,60S0,93.1,0,60,26.4,0,59,0s59,26.9,59,60Zm-57.2,13c0-7.4,2.7-9.5,10.7-15.1,7.4-5.2,11.3-9.6,11.3-17.6,0-11.7-9.1-19.1-23.3-19.1s-14.1,2.1-18.2,5.6c-3.5,2.9-5.9,6.7-7.2,10.9-.2.6-.3,1.2-.3,1.6,0,2.1,1.7,3.3,3.6,3.7.6,0,1.2.2,1.7.2,1.7,0,3.3-.9,4-3.2,2.2-6.5,7.1-11,15.9-11s14.6,4.5,14.6,11.6-2.1,7.4-9.2,12.4c-5.7,3.8-6.7,4.8-8.6,7.3-2.6,3.3-3.6,6.4-3.6,12.5v2.7c0,2.5,1.9,3.7,4.4,3.7s4.2-1.2,4.2-3.7v-2.6Zm-4.4,12c-3.7,0-6.6,2.6-6.6,6.6s2.9,6.6,6.6,6.6,6.6-2.6,6.6-6.6-3-6.6-6.6-6.6Z"/>
</svg>
