<?xml version="1.0" encoding="UTF-8"?>
<svg xmlns="http://www.w3.org/2000/svg" viewBox="-42 -38.915 256 256">
  <defs>
    <style>
      .b {
        fill: white;
        stroke-width: 0px;
      }
    </style>
  </defs>
  <path class="b" d="m172,94.17c0,6-10.3,3.93-16.03,4.28-2.11.13-3.76,1.88-3.76,3.99v71.81c0,2.16-1.75,3.91-3.91,3.91h-32.6c-2.19,0-3.97-1.76-3.99-3.95-.07-8.69,1.29-27.05-3.71-32.05-4-4-31.4-4.37-36,1-6,7-4.14,22.52-4.06,30.91.02,2.26-1.81,4.09-4.06,4.09H28c-2.21,0-4-1.79-4-4v-72.05c0-2.17-1.71-3.96-3.88-4.03-6.79-.24-20.12,2.08-20.12-4.92C0,88.73,69.52,17.1,84.98,1.23c1.64-1.68,4.35-1.64,5.93.1,14.81,16.28,81.09,89.29,81.09,92.84Zm-83.5-49c-11.32,0-20.5,9.18-20.5,20.5s9.18,20.5,20.5,20.5,20.5-9.18,20.5-20.5-9.18-20.5-20.5-20.5Z"/>
</svg>
