<?xml version="1.0" encoding="UTF-8"?>
<svg xmlns="http://www.w3.org/2000/svg" viewBox="0 0 980.8 806.2">
  <defs>
    <style>
      .b {
        fill: #fff;
        stroke-width: 0px;
      }
    </style>
  </defs>
  <path class="b" d="M320,311c-46.8-30.3-66.5-63-66.5-68.5,0-12,1-13.8,237-13.8s237,5.8,236,22.8-31,38.2-72.5,63.5c-56.8,34.6-129.3,64.5-129.3,64.5l2.3,111.5s128,65.5,200,127c62,53,69.5,102.6,69.5,109.5,0,15-1,14.7-305.5,14.7s-306.5,1.3-306.5-18.7,20.1-63.3,85.5-116.5c71.1-57.8,188-115,188-115l-.5-112.5s-82.9-33.2-137.5-68.5ZM0,780c0,27,0,26.2,490,26.2s490-3.2,490-27.2-20-24-20-24l-51-2s12-74-90-201c-63.9-79.5-132.3-118.2-174.6-136.1-14.7-6.2-15-26.9-.5-33.5,49.8-22.6,83.2-30.7,140.1-87.4,123.3-122.7,123-244,123-244h48.3s25.5,1,25.5-25.5-1-25.5-24.5-25.5c-58.9,0-465.3,1-465.3,1,0,0-409.3.2-459,.2S0,15,0,25.7C0,52.2,72,52.2,72,52.2c0,0,10,147,139,253.9,60.7,50.4,89.3,65.1,131.7,86.3s8,15.3,0,19.4c-38.6,19.8-125.3,69.5-188.8,144.2-84,99-83.1,196.9-83.1,196.9H25s-25-2.6-25,27Z"/>
</svg>
