<?xml version="1.0" encoding="UTF-8"?>
<svg xmlns="http://www.w3.org/2000/svg" viewBox="-24 -33 128 128">
  <defs>
    <style>
      .b {
        fill: white;
        stroke-width: 0px;
      }
    </style>
  </defs>
  <path class="b" d="m80,43c0,19-10,19-12.5,19-8.5,0-14.5-21-27.5-21s-16,21-25,21S0,62,0,43C0,3,22,0,41,0s39,2,39,43Zm-30-25c-2.2,0-4,1.8-4,4s1.8,4,4,4,4-1.8,4-4-1.8-4-4-4Zm8,8c-2.2,0-4,1.8-4,4s1.8,4,4,4,4-1.8,4-4-1.8-4-4-4Zm8-8c-2.2,0-4,1.8-4,4s1.8,4,4,4,4-1.8,4-4-1.8-4-4-4Zm-8,0c2.2,0,4-1.8,4-4s-1.8-4-4-4-4,1.8-4,4,1.8,4,4,4Zm-28,0h-2v-2c0-2.2-1.8-4-4-4s-4,1.8-4,4v2h-2c-2.2,0-4,1.8-4,4s1.8,4,4,4h2v2c0,2.2,1.8,4,4,4s4-1.8,4-4v-2h2c2.2,0,4-1.8,4-4s-1.8-4-4-4Z"/>
</svg>
