<?xml version="1.0" encoding="UTF-8"?>
<svg xmlns="http://www.w3.org/2000/svg" viewBox="-38 -38 256 256">
  <defs>
    <style>
      .b {
        fill: none;
        stroke: white;
        stroke-linecap: round;
        stroke-miterlimit: 10;
        stroke-width: 20px;
      }

      .c {
        fill: white;
        stroke-width: 0px;
      }
    </style>
  </defs>
  <path class="b" d="m170,90c0,44.18-35.82,80-80,80-21.71,0-41.41-8.65-55.82-22.7"/>
  <path class="b" d="m10,90C10,45.82,45.82,10,90,10c22.09,0,42.09,8.95,56.57,23.43"/>
  <path class="c" d="m6.5,117.36v47.36c0,4.21,5.08,6.33,8.07,3.36l47.04-46.61c2.96-2.93.88-7.97-3.28-7.97H10.36c-2.13,0-3.86,1.73-3.86,3.86Z"/>
  <path class="c" d="m175.5,60.64V13.28c0-4.21-5.08-6.33-8.07-3.36l-47.04,46.61c-2.96,2.93-.88,7.97,3.28,7.97h47.98c2.13,0,3.86-1.73,3.86-3.86Z"/>
</svg>
