<?xml version="1.0" encoding="UTF-8"?>
<svg xmlns="http://www.w3.org/2000/svg" viewBox="-30.165 -22.69 128 128">
  <defs>
    <style>
      .b {
        fill: none;
        stroke: white;
        stroke-linecap: round;
        stroke-miterlimit: 10;
        stroke-width: 8px;
      }

      .c {
        fill: white;
        stroke-width: 0px;
      }
    </style>
  </defs>
  <path class="b" d="m34.87,4.22c-.61-.29-1.32-.29-1.94,0-2.02.97-6.56,4.87-11.65,7.2-6.64,3.04-13.98,4.51-15.33,4.51-2.7,0-1.8,23.44-1.8,32.91,0,7.9,20.72,23.96,27.58,29.06,1.29.96,3.06.95,4.35-.02,6.72-5.07,26.76-20.87,27.13-29.5.45-10.37,1.35-32.91-1.8-32.91-1.55,0-8.51-1.18-14.88-4.06-5.06-2.28-9.64-6.24-11.65-7.2Z"/>
  <path class="c" d="m34.96,12.98c-.46-.22-1-.22-1.46,0-1.52.73-4.94,3.67-8.78,5.42-5,2.29-10.52,3.39-11.54,3.39-2.04,0-1.36,17.65-1.36,24.78,0,5.95,15.6,18.04,20.77,21.88.97.72,2.31.72,3.27-.01,5.06-3.82,20.15-15.72,20.43-22.21.34-7.81,1.02-24.78-1.36-24.78-1.17,0-6.4-.89-11.2-3.06-3.81-1.72-7.26-4.7-8.77-5.42Z"/>
</svg>
