<?xml version="1.0" encoding="UTF-8"?>
<svg xmlns="http://www.w3.org/2000/svg" viewBox="-54.315 -37.745 256 256">
  <defs>
    <style>
      .b {
        fill: none;
        stroke: white;
        stroke-dasharray: 0 0 22.5 23;
        stroke-linecap: round;
        stroke-miterlimit: 10;
        stroke-width: 15px;
      }
    </style>
  </defs>
  <path class="b" d="m75.97,7.99c-1.36-.65-2.94-.65-4.3,0-4.48,2.15-14.55,10.8-25.85,15.97-14.73,6.74-31,10-34,10-6,0-4,52-4,73,0,17.52,45.96,53.16,61.18,64.47,2.87,2.13,6.79,2.11,9.64-.04,14.91-11.24,59.35-46.3,60.18-65.43,1-23,3-73-4-73-3.43,0-18.87-2.62-33-9-11.22-5.06-21.38-13.83-25.85-15.97Z"/>
</svg>
