<?xml version="1.0" encoding="UTF-8"?>
<svg xmlns="http://www.w3.org/2000/svg" viewBox="-23 -22.5 128 128">
  <defs>
    <style>
      .b {
        fill: white;
        stroke-width: 0px;
      }
    </style>
  </defs>
  <path class="b" d="m70.1,0H11.9C5.3,0,0,5.3,0,11.9v45.3c0,6.3,5,11.5,11.2,11.8h-.2s0,6,0,8q0,6,6,6t6-6v-8h47.1c6.6,0,11.9-5.3,11.9-11.9V11.9c0-6.6-5.3-11.9-11.9-11.9Zm-37.1,9.5c0-1.9,1.6-3.5,3.5-3.5h9c1.9,0,3.5,1.6,3.5,3.5v17c0,1.9-1.6,3.5-3.5,3.5h-9c-1.9,0-3.5-1.6-3.5-3.5V9.5Zm-22,0c0-1.9,1.6-3.5,3.5-3.5h9c1.9,0,3.5,1.6,3.5,3.5v17c0,1.9-1.6,3.5-3.5,3.5h-9c-1.9,0-3.5-1.6-3.5-3.5V9.5Zm57,54.5H14c-1.7,0-3-1.3-3-3s1.3-3,3-3h54c1.7,0,3,1.3,3,3s-1.3,3-3,3Zm0-12H14c-1.7,0-3-1.3-3-3s1.3-3,3-3h54c1.7,0,3,1.3,3,3s-1.3,3-3,3Zm0-12H14c-1.7,0-3-1.3-3-3s1.3-3,3-3h54c1.7,0,3,1.3,3,3s-1.3,3-3,3Zm3-13.5c0,1.9-1.6,3.5-3.5,3.5h-9c-1.9,0-3.5-1.6-3.5-3.5V9.5c0-1.9,1.6-3.5,3.5-3.5h9c1.9,0,3.5,1.6,3.5,3.5v17Z"/>
  <path class="b" d="m27,77.9q0,5.1,6,5.1t6-5.1v-6.8h-12s0,5.1,0,6.8Z"/>
  <path class="b" d="m43,77.8q0,5.1,6,5.1t6-5.1v-6.8h-12s0,5.1,0,6.8Z"/>
  <path class="b" d="m59,77.8q0,5.1,6,5.1t6-5.1v-6.8h-12s0,5.1,0,6.8Z"/>
</svg>
