<?xml version="1.0" encoding="UTF-8"?>
<svg xmlns="http://www.w3.org/2000/svg" viewBox="-3.05 -9.35 128 128">
  <defs>
    <style>
      .b {
        fill: white;
        stroke-width: 0px;
      }
    </style>
  </defs>
  <path class="b" d="m66.1,2.6l55.2,99.3c1.9,3.3-.6,7.4-4.4,7.4l-111.9-.9c-3.8,0-6.2-4.2-4.3-7.5L57.4,2.5c1.9-3.4,6.8-3.3,8.7,0Zm-4,72.1c1.6,0,3.1-.9,3.2-2.7l1.1-41c0-2.2-1.7-3.7-4.2-3.7s-4.4,1.4-4.4,3.7l1.1,41c0,1.8,1.5,2.7,3.2,2.7Zm0,4.9c-3.1,0-5.5,2.2-5.5,5.5s2.4,5.5,5.5,5.5,5.5-2.2,5.5-5.5-2.6-5.5-5.5-5.5Z"/>
</svg>
